<svg xmlns="http://www.w3.org/2000/svg" xmlns:xlink="http://www.w3.org/1999/xlink" width="1000" zoomAndPan="magnify" viewBox="0 0 750 749.999995" height="1000" preserveAspectRatio="xMidYMid meet" version="1.0"><rect x="-75" width="900" fill="#ffffff" y="-74.999999" height="899.999994" fill-opacity="1"/><rect x="-75" width="900" fill="#ffffff" y="-74.999999" height="899.999994" fill-opacity="1"/><path fill="#0866ff" d="M 750.101562 375.066406 C 750.101562 167.910156 582.191406 0 375.066406 0 C 167.941406 0 0 167.910156 0 375.066406 C 0 550.953125 121.082031 698.5625 284.449219 739.09375 L 284.449219 489.6875 L 207.089844 489.6875 L 207.089844 375.066406 L 284.449219 375.066406 L 284.449219 325.683594 C 284.449219 198.035156 342.210938 138.859375 467.539062 138.859375 C 491.304688 138.859375 532.304688 143.503906 549.070312 148.183594 L 549.070312 252.066406 C 540.214844 251.121094 524.832031 250.652344 505.746094 250.652344 C 444.242188 250.652344 420.476562 273.945312 420.476562 334.503906 L 420.476562 375.035156 L 542.976562 375.035156 L 521.9375 489.65625 L 420.476562 489.65625 L 420.476562 747.339844 C 606.195312 724.921875 750.101562 566.773438 750.101562 375.035156 Z M 750.101562 375.066406 " fill-opacity="1" fill-rule="nonzero"/><path fill="#ffffff" d="M 521.96875 489.65625 L 543.007812 375.035156 L 420.511719 375.035156 L 420.511719 334.503906 C 420.511719 273.945312 444.277344 250.652344 505.777344 250.652344 C 524.867188 250.652344 540.25 251.121094 549.101562 252.066406 L 549.101562 148.183594 C 532.339844 143.535156 491.335938 138.859375 467.570312 138.859375 C 342.246094 138.859375 284.480469 198.035156 284.480469 325.683594 L 284.480469 375.066406 L 207.125 375.066406 L 207.125 489.6875 L 284.480469 489.6875 L 284.480469 739.09375 C 313.5 746.296875 343.828125 750.132812 375.101562 750.132812 C 390.484375 750.132812 405.632812 749.191406 420.546875 747.375 L 420.546875 489.6875 L 522.003906 489.6875 Z M 521.96875 489.65625 " fill-opacity="1" fill-rule="nonzero"/></svg>