<svg xmlns="http://www.w3.org/2000/svg" xmlns:xlink="http://www.w3.org/1999/xlink" width="1000" zoomAndPan="magnify" viewBox="0 0 750 749.999995" height="1000" preserveAspectRatio="xMidYMid meet" version="1.0"><rect x="-75" width="900" fill="#ffffff" y="-74.999999" height="899.999994" fill-opacity="1"/><rect x="-75" width="900" fill="#ffffff" y="-74.999999" height="899.999994" fill-opacity="1"/><path fill="#0b775c" d="M 375 749.996094 C 581.53125 749.996094 749.996094 581.53125 749.996094 375 C 749.996094 168.46875 581.53125 0.00390625 375 0.00390625 C 168.46875 0.00390625 0.00390625 168.46875 0.00390625 375 C 0.00390625 581.53125 168.46875 749.996094 375 749.996094 Z M 375 749.996094 " fill-opacity="1" fill-rule="evenodd"/><path fill="#ffffff" d="M 242.113281 334.34375 L 258.777344 186.90625 L 208.257812 186.90625 C 184.824219 186.90625 175.792969 194.042969 173.660156 214.164062 L 173.613281 214.566406 L 150.203125 299.660156 C 146.386719 313.480469 148.234375 325.851562 155.515625 335.429688 C 164.207031 346.84375 180.597656 353.933594 198.304688 353.933594 C 216.378906 353.910156 232.648438 346.621094 242.113281 334.34375 Z M 242.113281 334.34375 " fill-opacity="1" fill-rule="evenodd"/><path fill="#ffffff" d="M 316.355469 356.027344 C 335.253906 356.027344 352.605469 346.609375 360.9375 331.925781 L 360.769531 186.894531 L 285.515625 186.894531 L 273.21875 330.191406 C 280.835938 346.398438 296.871094 356.027344 316.355469 356.027344 Z M 316.355469 356.027344 " fill-opacity="1" fill-rule="evenodd"/><path fill="#ffffff" d="M 537.347656 378.894531 C 516.351562 376.929688 498.390625 367.6875 486.824219 352.742188 C 480.246094 361.816406 471.171875 369.105469 459.773438 374.089844 C 454.722656 376.238281 449.492188 377.789062 444.089844 378.753906 C 438.683594 379.714844 433.242188 380.058594 427.757812 379.785156 C 405.875 378.894531 387.015625 369.105469 374.921875 353.277344 C 369.40625 360.574219 361.9375 366.796875 353.21875 371.601562 C 343.613281 376.578125 332.761719 379.25 322.089844 379.785156 C 297.539062 380.851562 270.855469 370.355469 257.871094 352.566406 C 244.351562 369.996094 235.8125 376.761719 212.507812 378.894531 C 204.875 379.429688 197.285156 379.074219 189.738281 377.828125 L 189.738281 536.503906 C 189.738281 557.65625 206.992188 575.105469 228.164062 575.105469 L 249.511719 575.105469 L 249.511719 432.792969 C 249.507812 431.800781 249.605469 430.816406 249.796875 429.84375 C 249.992188 428.871094 250.277344 427.921875 250.65625 427.007812 C 251.035156 426.089844 251.503906 425.214844 252.054688 424.390625 C 252.605469 423.566406 253.230469 422.800781 253.933594 422.097656 C 254.636719 421.394531 255.398438 420.769531 256.226562 420.21875 C 257.050781 419.667969 257.921875 419.199219 258.839844 418.820312 C 259.757812 418.441406 260.703125 418.15625 261.679688 417.960938 C 262.652344 417.769531 263.636719 417.671875 264.628906 417.675781 L 333.683594 417.675781 C 334.675781 417.671875 335.660156 417.769531 336.632812 417.960938 C 337.609375 418.15625 338.554688 418.441406 339.472656 418.820312 C 340.390625 419.199219 341.261719 419.667969 342.089844 420.21875 C 342.914062 420.769531 343.679688 421.394531 344.378906 422.097656 C 345.082031 422.800781 345.710938 423.566406 346.261719 424.390625 C 346.8125 425.214844 347.28125 426.089844 347.660156 427.003906 C 348.039062 427.921875 348.324219 428.871094 348.519531 429.84375 C 348.710938 430.816406 348.808594 431.800781 348.808594 432.792969 L 348.808594 575.105469 L 521.714844 575.105469 C 542.863281 575.105469 560.320312 557.675781 560.320312 536.503906 L 560.320312 377.828125 C 552.703125 379.070312 545.046875 379.425781 537.347656 378.894531 Z M 525.960938 510.714844 C 525.964844 511.640625 525.878906 512.554688 525.703125 513.464844 C 525.527344 514.371094 525.261719 515.253906 524.910156 516.105469 C 524.5625 516.960938 524.128906 517.773438 523.617188 518.542969 C 523.105469 519.3125 522.523438 520.023438 521.867188 520.675781 C 521.214844 521.332031 520.503906 521.914062 519.734375 522.425781 C 518.964844 522.9375 518.152344 523.371094 517.296875 523.722656 C 516.441406 524.074219 515.5625 524.335938 514.652344 524.511719 C 513.746094 524.6875 512.832031 524.773438 511.90625 524.769531 L 402.859375 524.769531 C 401.933594 524.773438 401.019531 524.6875 400.113281 524.511719 C 399.203125 524.335938 398.324219 524.074219 397.46875 523.722656 C 396.613281 523.371094 395.800781 522.9375 395.03125 522.425781 C 394.261719 521.914062 393.550781 521.332031 392.898438 520.675781 C 392.246094 520.023438 391.660156 519.3125 391.148438 518.542969 C 390.636719 517.773438 390.207031 516.960938 389.855469 516.105469 C 389.503906 515.253906 389.238281 514.371094 389.0625 513.464844 C 388.886719 512.554688 388.800781 511.640625 388.808594 510.714844 L 388.808594 444.710938 C 388.808594 443.789062 388.898438 442.878906 389.082031 441.972656 C 389.261719 441.070312 389.53125 440.191406 389.882812 439.339844 C 390.238281 438.488281 390.671875 437.679688 391.183594 436.910156 C 391.695312 436.144531 392.277344 435.4375 392.929688 434.785156 C 393.582031 434.132812 394.292969 433.550781 395.058594 433.039062 C 395.824219 432.523438 396.632812 432.089844 397.484375 431.738281 C 398.339844 431.382812 399.214844 431.117188 400.121094 430.933594 C 401.023438 430.753906 401.9375 430.660156 402.859375 430.660156 L 511.90625 430.660156 C 512.828125 430.660156 513.742188 430.753906 514.644531 430.933594 C 515.550781 431.117188 516.429688 431.382812 517.28125 431.738281 C 518.132812 432.089844 518.941406 432.523438 519.707031 433.035156 C 520.472656 433.550781 521.183594 434.132812 521.835938 434.785156 C 522.488281 435.4375 523.070312 436.144531 523.582031 436.914062 C 524.09375 437.679688 524.527344 438.488281 524.882812 439.339844 C 525.234375 440.191406 525.503906 441.070312 525.683594 441.972656 C 525.867188 442.878906 525.957031 443.789062 525.960938 444.710938 Z M 525.960938 510.714844 " fill-opacity="1" fill-rule="evenodd"/><path fill="#ffffff" d="M 599.847656 299.640625 L 576.238281 214.546875 L 576.199219 214.121094 C 574.230469 194.023438 565.175781 186.894531 541.601562 186.894531 L 490.914062 186.894531 L 507.75 334.332031 C 517.207031 346.628906 533.484375 353.898438 551.570312 353.898438 C 569.277344 353.898438 585.707031 346.804688 594.425781 335.386719 C 601.75 325.8125 603.621094 313.449219 599.847656 299.640625 Z M 599.847656 299.640625 " fill-opacity="1" fill-rule="evenodd"/><path fill="#ffffff" d="M 433.921875 355.761719 C 453.210938 355.761719 469.09375 346.230469 476.648438 330.1875 L 464.351562 186.890625 L 387.890625 186.890625 L 388.914062 331.371094 C 397.324219 346.230469 414.839844 355.761719 433.921875 355.761719 Z M 433.921875 355.761719 " fill-opacity="1" fill-rule="evenodd"/></svg>